<svg width="575" height="310" viewBox="0 0 575 310" fill="none" xmlns="http://www.w3.org/2000/svg">
<path d="M24.9739 67.1662C22.5009 67.1662 20.5338 67.6159 19.0725 68.5151C17.7236 69.4144 16.6557 70.7071 15.8689 72.3932C15.082 74.0793 14.5762 76.1588 14.3514 78.6318C14.1265 80.9923 14.0141 83.6901 14.0141 86.7251V169.176C14.0141 174.796 14.8572 179.068 16.5433 181.991C18.3418 184.913 21.0958 186.374 24.8053 186.374C28.0651 186.374 30.5942 185.25 32.3928 183.002C34.3037 180.642 35.2592 177.213 35.2592 172.717V142.03H42.5094V171.368C42.5094 176.988 41.0481 181.091 38.1255 183.677C35.203 186.15 31.1001 187.386 25.8169 187.386H23.1191C17.836 187.386 13.7331 185.869 10.8105 182.834C8.00033 179.686 6.59524 174.74 6.59524 167.996V85.5449C6.59524 78.2384 7.94413 73.18 10.6419 70.3698C13.4521 67.5597 17.6112 66.1546 23.1191 66.1546H25.6483C31.2687 66.1546 35.5402 67.391 38.4628 69.864C41.3854 72.2246 42.8467 76.4961 42.8467 82.6785V111.511H35.4278V83.6901C35.4278 78.5194 34.7533 74.4727 33.4044 71.5501C32.1679 68.6275 29.3578 67.1662 24.9739 67.1662ZM137.648 67.8407V185.7H130.398V127.36H110.333V185.7H102.914V67.8407H110.333V126.349H130.398V67.8407H137.648ZM206.139 68.8523V126.349H220.808V127.36H206.139V184.688H225.023V185.7H198.72V67.8407H225.023V68.8523H206.139ZM217.436 52.8343C219.684 51.8226 220.808 50.2489 220.808 48.1131C220.808 47.2139 220.583 46.3708 220.134 45.584C219.796 44.6847 219.403 43.8979 218.953 43.2234L203.947 58.7357L204.621 59.4101L217.436 52.8343ZM301.892 67.8407C307.624 67.8407 311.84 69.302 314.537 72.2246C317.348 75.0348 318.753 80.0369 318.753 87.231V107.97C318.753 113.478 317.629 117.75 315.38 120.785C313.245 123.82 310.266 125.731 306.444 126.517V126.855C310.491 127.417 313.526 129.215 315.549 132.25C317.685 135.173 318.753 139.613 318.753 145.57V185.7H311.334V146.751C311.334 140.681 310.659 135.903 309.31 132.419C308.074 128.934 305.32 127.192 301.048 127.192H290.089V185.7H282.838V67.8407H301.892ZM290.089 126.18H301.048C304.646 126.18 307.231 124.719 308.805 121.796C310.491 118.874 311.334 114.715 311.334 109.319V88.4112C311.334 82.2288 310.716 77.4515 309.479 74.0793C308.243 70.5947 305.32 68.8523 300.711 68.8523H290.089V126.18ZM398.52 67.8407C404.253 67.8407 408.468 69.302 411.166 72.2246C413.976 75.0348 415.381 80.0369 415.381 87.231V107.97C415.381 113.478 414.257 117.75 412.009 120.785C409.873 123.82 406.895 125.731 403.073 126.517V126.855C407.119 127.417 410.154 129.215 412.178 132.25C414.314 135.173 415.381 139.613 415.381 145.57V185.7H407.963V146.751C407.963 140.681 407.288 135.903 405.939 132.419C404.703 128.934 401.949 127.192 397.677 127.192H386.717V185.7H379.467V67.8407H398.52ZM386.717 126.18H397.677C401.274 126.18 403.86 124.719 405.433 121.796C407.119 118.874 407.963 114.715 407.963 109.319V88.4112C407.963 82.2288 407.344 77.4515 406.108 74.0793C404.871 70.5947 401.949 68.8523 397.34 68.8523H386.717V126.18ZM476.096 67.8407H483.346V185.7H476.096V67.8407ZM551.654 68.8523V126.349H566.323V127.36H551.654V184.688H570.538V185.7H544.235V67.8407H570.538V68.8523H551.654Z" fill="white"/>
<path d="M19.0725 68.5151L18.5484 67.6635L18.5329 67.673L18.5178 67.6831L19.0725 68.5151ZM15.8689 72.3932L14.9627 71.9703H14.9627L15.8689 72.3932ZM14.3514 78.6318L15.3469 78.7266L15.3473 78.7223L14.3514 78.6318ZM16.5433 181.991L15.6771 182.49L15.6842 182.503L15.6916 182.515L16.5433 181.991ZM32.3928 183.002L31.6155 182.373L31.6119 182.377L32.3928 183.002ZM35.2592 142.03V141.03H34.2592V142.03H35.2592ZM42.5094 142.03H43.5094V141.03H42.5094V142.03ZM38.1255 183.677L38.7715 184.44L38.7799 184.433L38.7881 184.426L38.1255 183.677ZM10.8105 182.834L10.0646 183.5L10.0771 183.514L10.0902 183.527L10.8105 182.834ZM10.6419 70.3698L9.9348 69.6627L9.92759 69.67L9.92052 69.6773L10.6419 70.3698ZM38.4628 69.864L37.8168 70.6274L37.8255 70.6348L37.8344 70.6419L38.4628 69.864ZM42.8467 111.511V112.511H43.8467V111.511H42.8467ZM35.4278 111.511H34.4278V112.511H35.4278V111.511ZM33.4044 71.5501L32.4835 71.9398L32.4897 71.9546L32.4965 71.9692L33.4044 71.5501ZM24.9739 66.1662C22.393 66.1662 20.2221 66.6335 18.5484 67.6635L19.5966 69.3668C20.8454 68.5983 22.6088 68.1662 24.9739 68.1662V66.1662ZM18.5178 67.6831C16.995 68.6982 15.8153 70.1432 14.9627 71.9703L16.775 72.8161C17.4961 71.271 18.4521 70.1305 19.6272 69.3472L18.5178 67.6831ZM14.9627 71.9703C14.1136 73.7897 13.5875 75.9893 13.3555 78.5413L15.3473 78.7223C15.5649 76.3283 16.0504 74.3689 16.775 72.8161L14.9627 71.9703ZM13.3559 78.537C13.1274 80.9363 13.0141 83.6667 13.0141 86.7251H15.0141C15.0141 83.7135 15.1257 81.0484 15.3469 78.7266L13.3559 78.537ZM13.0141 86.7251V169.176H15.0141V86.7251H13.0141ZM13.0141 169.176C13.0141 174.868 13.8631 179.346 15.6771 182.49L17.4095 181.491C15.8513 178.79 15.0141 174.725 15.0141 169.176H13.0141ZM15.6916 182.515C17.6892 185.761 20.7824 187.374 24.8053 187.374V185.374C21.4092 185.374 18.9944 184.066 17.395 181.466L15.6916 182.515ZM24.8053 187.374C28.3234 187.374 31.1587 186.146 33.1736 183.627L31.6119 182.377C30.0298 184.355 27.8067 185.374 24.8053 185.374V187.374ZM33.17 183.631C35.2801 181.025 36.2592 177.336 36.2592 172.717H34.2592C34.2592 177.09 33.3273 180.258 31.6155 182.373L33.17 183.631ZM36.2592 172.717V142.03H34.2592V172.717H36.2592ZM35.2592 143.03H42.5094V141.03H35.2592V143.03ZM41.5094 142.03V171.368H43.5094V142.03H41.5094ZM41.5094 171.368C41.5094 176.831 40.0902 180.604 37.463 182.928L38.7881 184.426C42.006 181.579 43.5094 177.146 43.5094 171.368H41.5094ZM37.4796 182.913C34.7958 185.184 30.9531 186.386 25.8169 186.386V188.386C31.2471 188.386 35.6101 187.115 38.7715 184.44L37.4796 182.913ZM25.8169 186.386H23.1191V188.386H25.8169V186.386ZM23.1191 186.386C18.0345 186.386 14.2195 184.932 11.5308 182.14L10.0902 183.527C13.2467 186.805 17.6375 188.386 23.1191 188.386V186.386ZM11.5565 182.168C8.98351 179.286 7.59524 174.634 7.59524 167.996H5.59524C5.59524 174.847 7.01715 180.086 10.0646 183.5L11.5565 182.168ZM7.59524 167.996V85.5449H5.59524V167.996H7.59524ZM7.59524 85.5449C7.59524 78.2953 8.94696 73.5794 11.3633 71.0624L9.92052 69.6773C6.9413 72.7807 5.59524 78.1815 5.59524 85.5449H7.59524ZM11.349 71.077C13.909 68.517 17.7721 67.1546 23.1191 67.1546V65.1546C17.4502 65.1546 12.9952 66.6023 9.9348 69.6627L11.349 71.077ZM23.1191 67.1546H25.6483V65.1546H23.1191V67.1546ZM25.6483 67.1546C31.1399 67.1546 35.1428 68.3647 37.8168 70.6274L39.1087 69.1006C35.9376 66.4173 31.3975 65.1546 25.6483 65.1546V67.1546ZM37.8344 70.6419C40.405 72.7182 41.8467 76.6063 41.8467 82.6785H43.8467C43.8467 76.3858 42.3657 71.7309 39.0911 69.0861L37.8344 70.6419ZM41.8467 82.6785V111.511H43.8467V82.6785H41.8467ZM42.8467 110.511H35.4278V112.511H42.8467V110.511ZM36.4278 111.511V83.6901H34.4278V111.511H36.4278ZM36.4278 83.6901C36.4278 78.4525 35.7477 74.2409 34.3124 71.1311L32.4965 71.9692C33.7589 74.7045 34.4278 78.5863 34.4278 83.6901H36.4278ZM34.3254 71.1605C32.8719 67.7248 29.5771 66.1662 24.9739 66.1662V68.1662C29.1384 68.1662 31.464 69.5302 32.4835 71.9398L34.3254 71.1605ZM137.648 67.8407H138.648V66.8407H137.648V67.8407ZM137.648 185.7V186.7H138.648V185.7H137.648ZM130.398 185.7H129.398V186.7H130.398V185.7ZM130.398 127.36H131.398V126.36H130.398V127.36ZM110.333 127.36V126.36H109.333V127.36H110.333ZM110.333 185.7V186.7H111.333V185.7H110.333ZM102.914 185.7H101.914V186.7H102.914V185.7ZM102.914 67.8407V66.8407H101.914V67.8407H102.914ZM110.333 67.8407H111.333V66.8407H110.333V67.8407ZM110.333 126.349H109.333V127.349H110.333V126.349ZM130.398 126.349V127.349H131.398V126.349H130.398ZM130.398 67.8407V66.8407H129.398V67.8407H130.398ZM136.648 67.8407V185.7H138.648V67.8407H136.648ZM137.648 184.7H130.398V186.7H137.648V184.7ZM131.398 185.7V127.36H129.398V185.7H131.398ZM130.398 126.36H110.333V128.36H130.398V126.36ZM109.333 127.36V185.7H111.333V127.36H109.333ZM110.333 184.7H102.914V186.7H110.333V184.7ZM103.914 185.7V67.8407H101.914V185.7H103.914ZM102.914 68.8407H110.333V66.8407H102.914V68.8407ZM109.333 67.8407V126.349H111.333V67.8407H109.333ZM110.333 127.349H130.398V125.349H110.333V127.349ZM131.398 126.349V67.8407H129.398V126.349H131.398ZM130.398 68.8407H137.648V66.8407H130.398V68.8407ZM206.139 68.8523V67.8523H205.139V68.8523H206.139ZM206.139 126.349H205.139V127.349H206.139V126.349ZM220.808 126.349H221.808V125.349H220.808V126.349ZM220.808 127.36V128.36H221.808V127.36H220.808ZM206.139 127.36V126.36H205.139V127.36H206.139ZM206.139 184.688H205.139V185.688H206.139V184.688ZM225.023 184.688H226.023V183.688H225.023V184.688ZM225.023 185.7V186.7H226.023V185.7H225.023ZM198.72 185.7H197.72V186.7H198.72V185.7ZM198.72 67.8407V66.8407H197.72V67.8407H198.72ZM225.023 67.8407H226.023V66.8407H225.023V67.8407ZM225.023 68.8523V69.8523H226.023V68.8523H225.023ZM217.436 52.8343L217.025 51.9223L217.002 51.9329L216.979 51.9446L217.436 52.8343ZM220.134 45.584L219.197 45.9351L219.225 46.0104L219.265 46.0801L220.134 45.584ZM218.953 43.2234L219.785 42.6687L219.097 41.6365L218.235 42.5281L218.953 43.2234ZM203.947 58.7357L203.228 58.0404L202.544 58.7473L203.24 59.4428L203.947 58.7357ZM204.621 59.4101L203.914 60.1172L204.429 60.6325L205.078 60.2998L204.621 59.4101ZM205.139 68.8523V126.349H207.139V68.8523H205.139ZM206.139 127.349H220.808V125.349H206.139V127.349ZM219.808 126.349V127.36H221.808V126.349H219.808ZM220.808 126.36H206.139V128.36H220.808V126.36ZM205.139 127.36V184.688H207.139V127.36H205.139ZM206.139 185.688H225.023V183.688H206.139V185.688ZM224.023 184.688V185.7H226.023V184.688H224.023ZM225.023 184.7H198.72V186.7H225.023V184.7ZM199.72 185.7V67.8407H197.72V185.7H199.72ZM198.72 68.8407H225.023V66.8407H198.72V68.8407ZM224.023 67.8407V68.8523H226.023V67.8407H224.023ZM225.023 67.8523H206.139V69.8523H225.023V67.8523ZM217.846 53.7462C219.088 53.1873 220.089 52.4417 220.779 51.4765C221.474 50.5024 221.808 49.3666 221.808 48.1132H219.808C219.808 48.9954 219.579 49.7144 219.151 50.314C218.717 50.9224 218.032 51.4695 217.025 51.9223L217.846 53.7462ZM221.808 48.1132C221.808 47.0384 221.537 46.0246 221.002 45.0878L219.265 46.0801C219.629 46.7171 219.808 47.3893 219.808 48.1132H221.808ZM221.07 45.2329C220.711 44.2747 220.284 43.4172 219.785 42.6687L218.121 43.7781C218.521 44.3785 218.882 45.0947 219.197 45.9351L221.07 45.2329ZM218.235 42.5281L203.228 58.0404L204.666 59.431L219.672 43.9187L218.235 42.5281ZM203.24 59.4428L203.914 60.1172L205.328 58.703L204.654 58.0286L203.24 59.4428ZM205.078 60.2998L217.892 53.724L216.979 51.9446L204.165 58.5204L205.078 60.2998ZM314.537 72.2246L313.803 72.9028L313.816 72.9175L313.83 72.9317L314.537 72.2246ZM315.38 120.785L314.577 120.189L314.57 120.199L314.563 120.209L315.38 120.785ZM306.444 126.517L306.242 125.538L305.444 125.702V126.517H306.444ZM306.444 126.855H305.444V127.725L306.306 127.845L306.444 126.855ZM315.549 132.25L314.717 132.805L314.729 132.823L314.742 132.84L315.549 132.25ZM318.753 185.7V186.7H319.753V185.7H318.753ZM311.334 185.7H310.334V186.7H311.334V185.7ZM309.31 132.419L308.368 132.753L308.373 132.767L308.378 132.78L309.31 132.419ZM290.089 127.192V126.192H289.089V127.192H290.089ZM290.089 185.7V186.7H291.089V185.7H290.089ZM282.838 185.7H281.838V186.7H282.838V185.7ZM282.838 67.8407V66.8407H281.838V67.8407H282.838ZM290.089 126.18H289.089V127.18H290.089V126.18ZM308.805 121.796L307.938 121.297L307.931 121.309L307.924 121.322L308.805 121.796ZM309.479 74.0793L308.537 74.4137L308.54 74.4235L309.479 74.0793ZM290.089 68.8523V67.8523H289.089V68.8523H290.089ZM301.892 68.8407C307.47 68.8407 311.365 70.2621 313.803 72.9028L315.272 71.5463C312.314 68.3418 307.778 66.8407 301.892 66.8407V68.8407ZM313.83 72.9317C316.349 75.4507 317.753 80.1064 317.753 87.231H319.753C319.753 79.9674 318.346 74.6188 315.244 71.5175L313.83 72.9317ZM317.753 87.231V107.97H319.753V87.231H317.753ZM317.753 107.97C317.753 113.358 316.651 117.389 314.577 120.189L316.184 121.38C318.606 118.11 319.753 113.598 319.753 107.97H317.753ZM314.563 120.209C312.581 123.024 309.829 124.8 306.242 125.538L306.646 127.497C310.703 126.662 313.908 124.615 316.198 121.36L314.563 120.209ZM305.444 126.517V126.855H307.444V126.517H305.444ZM306.306 127.845C310.108 128.373 312.872 130.038 314.717 132.805L316.381 131.695C314.179 128.393 310.874 126.46 306.582 125.864L306.306 127.845ZM314.742 132.84C316.694 135.513 317.753 139.7 317.753 145.57H319.753C319.753 139.526 318.675 134.833 316.356 131.66L314.742 132.84ZM317.753 145.57V185.7H319.753V145.57H317.753ZM318.753 184.7H311.334V186.7H318.753V184.7ZM312.334 185.7V146.751H310.334V185.7H312.334ZM312.334 146.751C312.334 140.625 311.656 135.707 310.243 132.058L308.378 132.78C309.663 136.1 310.334 140.737 310.334 146.751H312.334ZM310.253 132.084C309.57 130.161 308.444 128.66 306.852 127.653C305.273 126.654 303.316 126.192 301.048 126.192V128.192C303.053 128.192 304.608 128.601 305.783 129.344C306.945 130.079 307.814 131.192 308.368 132.753L310.253 132.084ZM301.048 126.192H290.089V128.192H301.048V126.192ZM289.089 127.192V185.7H291.089V127.192H289.089ZM290.089 184.7H282.838V186.7H290.089V184.7ZM283.838 185.7V67.8407H281.838V185.7H283.838ZM282.838 68.8407H301.892V66.8407H282.838V68.8407ZM290.089 127.18H301.048V125.18H290.089V127.18ZM301.048 127.18C302.983 127.18 304.706 126.786 306.177 125.955C307.653 125.121 308.82 123.878 309.685 122.27L307.924 121.322C307.216 122.637 306.303 123.587 305.193 124.214C304.079 124.843 302.711 125.18 301.048 125.18V127.18ZM309.671 122.296C311.482 119.156 312.334 114.795 312.334 109.319H310.334C310.334 114.634 309.499 118.591 307.938 121.297L309.671 122.296ZM312.334 109.319V88.4112H310.334V109.319H312.334ZM312.334 88.4112C312.334 82.1835 311.714 77.2694 310.418 73.735L308.54 74.4235C309.717 77.6336 310.334 82.2742 310.334 88.4112H312.334ZM310.421 73.7449C309.733 71.8033 308.551 70.3013 306.872 69.3001C305.21 68.3095 303.134 67.8523 300.711 67.8523V69.8523C302.897 69.8523 304.587 70.2663 305.848 71.018C307.091 71.7592 307.989 72.8706 308.537 74.4137L310.421 73.7449ZM300.711 67.8523H290.089V69.8523H300.711V67.8523ZM289.089 68.8523V126.18H291.089V68.8523H289.089ZM411.166 72.2246L410.431 72.9028L410.445 72.9175L410.459 72.9317L411.166 72.2246ZM412.009 120.785L411.206 120.189L411.198 120.199L411.191 120.209L412.009 120.785ZM403.073 126.517L402.871 125.538L402.073 125.702V126.517H403.073ZM403.073 126.855H402.073V127.725L402.935 127.845L403.073 126.855ZM412.178 132.25L411.346 132.805L411.358 132.823L411.37 132.84L412.178 132.25ZM415.381 185.7V186.7H416.381V185.7H415.381ZM407.962 185.7H406.962V186.7H407.962V185.7ZM405.939 132.419L404.997 132.753L405.001 132.767L405.007 132.78L405.939 132.419ZM386.717 127.192V126.192H385.717V127.192H386.717ZM386.717 185.7V186.7H387.717V185.7H386.717ZM379.467 185.7H378.467V186.7H379.467V185.7ZM379.467 67.8407V66.8407H378.467V67.8407H379.467ZM386.717 126.18H385.717V127.18H386.717V126.18ZM405.433 121.796L404.567 121.297L404.56 121.309L404.553 121.322L405.433 121.796ZM406.108 74.0793L405.165 74.4137L405.169 74.4235L406.108 74.0793ZM386.717 68.8523V67.8523H385.717V68.8523H386.717ZM398.52 68.8407C404.099 68.8407 407.994 70.2621 410.431 72.9028L411.901 71.5463C408.943 68.3418 404.407 66.8407 398.52 66.8407V68.8407ZM410.459 72.9317C412.978 75.4507 414.381 80.1064 414.381 87.231H416.381C416.381 79.9674 414.975 74.6188 411.873 71.5175L410.459 72.9317ZM414.381 87.231V107.97H416.381V87.231H414.381ZM414.381 107.97C414.381 113.358 413.28 117.389 411.206 120.189L412.813 121.38C415.235 118.11 416.381 113.598 416.381 107.97H414.381ZM411.191 120.209C409.21 123.024 406.458 124.8 402.871 125.538L403.274 127.497C407.331 126.662 410.537 124.615 412.827 121.36L411.191 120.209ZM402.073 126.517V126.855H404.073V126.517H402.073ZM402.935 127.845C406.737 128.373 409.501 130.038 411.346 132.805L413.01 131.695C410.808 128.393 407.502 126.46 403.21 125.864L402.935 127.845ZM411.37 132.84C413.323 135.513 414.381 139.7 414.381 145.57H416.381C416.381 139.526 415.304 134.833 412.985 131.66L411.37 132.84ZM414.381 145.57V185.7H416.381V145.57H414.381ZM415.381 184.7H407.962V186.7H415.381V184.7ZM408.962 185.7V146.751H406.962V185.7H408.962ZM408.962 146.751C408.962 140.625 408.284 135.707 406.872 132.058L405.007 132.78C406.292 136.1 406.962 140.737 406.962 146.751H408.962ZM406.882 132.084C406.199 130.161 405.072 128.66 403.481 127.653C401.901 126.654 399.945 126.192 397.677 126.192V128.192C399.681 128.192 401.237 128.601 402.412 129.344C403.574 130.079 404.443 131.192 404.997 132.753L406.882 132.084ZM397.677 126.192H386.717V128.192H397.677V126.192ZM385.717 127.192V185.7H387.717V127.192H385.717ZM386.717 184.7H379.467V186.7H386.717V184.7ZM380.467 185.7V67.8407H378.467V185.7H380.467ZM379.467 68.8407H398.52V66.8407H379.467V68.8407ZM386.717 127.18H397.677V125.18H386.717V127.18ZM397.677 127.18C399.612 127.18 401.335 126.786 402.806 125.955C404.282 125.121 405.448 123.878 406.314 122.27L404.553 121.322C403.845 122.637 402.932 123.587 401.822 124.214C400.708 124.843 399.34 125.18 397.677 125.18V127.18ZM406.3 122.296C408.111 119.156 408.962 114.795 408.962 109.319H406.962C406.962 114.634 406.128 118.591 404.567 121.297L406.3 122.296ZM408.962 109.319V88.4112H406.962V109.319H408.962ZM408.962 88.4112C408.962 82.1835 408.343 77.2694 407.047 73.735L405.169 74.4235C406.346 77.6336 406.962 82.2742 406.962 88.4112H408.962ZM407.05 73.7449C406.361 71.8033 405.18 70.3013 403.501 69.3001C401.839 68.3095 399.763 67.8523 397.34 67.8523V69.8523C399.526 69.8523 401.215 70.2663 402.476 71.018C403.72 71.7592 404.618 72.8706 405.165 74.4137L407.05 73.7449ZM397.34 67.8523H386.717V69.8523H397.34V67.8523ZM385.717 68.8523V126.18H387.717V68.8523H385.717ZM476.096 67.8407V66.8407H475.096V67.8407H476.096ZM483.346 67.8407H484.346V66.8407H483.346V67.8407ZM483.346 185.7V186.7H484.346V185.7H483.346ZM476.096 185.7H475.096V186.7H476.096V185.7ZM476.096 68.8407H483.346V66.8407H476.096V68.8407ZM482.346 67.8407V185.7H484.346V67.8407H482.346ZM483.346 184.7H476.096V186.7H483.346V184.7ZM477.096 185.7V67.8407H475.096V185.7H477.096ZM551.654 68.8523V67.8523H550.654V68.8523H551.654ZM551.654 126.349H550.654V127.349H551.654V126.349ZM566.323 126.349H567.323V125.349H566.323V126.349ZM566.323 127.36V128.36H567.323V127.36H566.323ZM551.654 127.36V126.36H550.654V127.36H551.654ZM551.654 184.688H550.654V185.688H551.654V184.688ZM570.538 184.688H571.538V183.688H570.538V184.688ZM570.538 185.7V186.7H571.538V185.7H570.538ZM544.235 185.7H543.235V186.7H544.235V185.7ZM544.235 67.8407V66.8407H543.235V67.8407H544.235ZM570.538 67.8407H571.538V66.8407H570.538V67.8407ZM570.538 68.8523V69.8523H571.538V68.8523H570.538ZM550.654 68.8523V126.349H552.654V68.8523H550.654ZM551.654 127.349H566.323V125.349H551.654V127.349ZM565.323 126.349V127.36H567.323V126.349H565.323ZM566.323 126.36H551.654V128.36H566.323V126.36ZM550.654 127.36V184.688H552.654V127.36H550.654ZM551.654 185.688H570.538V183.688H551.654V185.688ZM569.538 184.688V185.7H571.538V184.688H569.538ZM570.538 184.7H544.235V186.7H570.538V184.7ZM545.235 185.7V67.8407H543.235V185.7H545.235ZM544.235 68.8407H570.538V66.8407H544.235V68.8407ZM569.538 67.8407V68.8523H571.538V67.8407H569.538ZM570.538 67.8523H551.654V69.8523H570.538V67.8523Z" fill="white"/>
<path d="M174.542 221.132C174.542 218.653 175.038 216.744 176.03 215.405C177.071 214.066 178.361 213.396 179.898 213.396C180.641 213.396 181.435 213.595 182.278 213.991C183.121 214.388 183.939 215.008 184.732 215.851L184.435 216.148C183.146 214.859 182.005 214.215 181.013 214.215C180.022 214.215 179.228 214.785 178.633 215.925C178.088 217.016 177.815 218.429 177.815 220.165V234.892H183.468V235.338H177.815V266.131H174.542V235.338H171.865V234.892H174.542V221.132ZM208.94 234.892V242.404H209.163C209.709 240.024 210.477 238.19 211.469 236.9C212.51 235.562 214.122 234.892 216.304 234.892V237.719C215.064 237.719 213.973 237.942 213.031 238.388C212.138 238.834 211.37 239.454 210.725 240.247C210.13 240.991 209.684 241.884 209.386 242.925C209.089 243.917 208.94 244.983 208.94 246.123V266.131H205.89V234.892H208.94ZM240.37 255.718C240.37 253.338 241.313 251.603 243.197 250.512C245.081 249.371 248.007 248.776 251.974 248.727V242.033C251.974 239.355 251.651 237.446 251.007 236.305C250.362 235.165 249.271 234.595 247.734 234.595C246.197 234.595 245.106 235.19 244.461 236.38C243.817 237.52 243.494 239.404 243.494 242.033V247.537H240.37V242.925C240.37 239.801 240.891 237.57 241.932 236.231C243.023 234.843 244.808 234.148 247.288 234.148H248.032C250.56 234.148 252.346 234.793 253.387 236.082C254.478 237.371 255.023 239.504 255.023 242.479V266.131H251.974V263.677C250.238 265.809 248.28 266.875 246.098 266.875C244.511 266.875 243.147 266.305 242.007 265.165C240.916 264.024 240.37 262.561 240.37 260.776V255.718ZM251.974 249.173C248.85 249.223 246.643 249.694 245.354 250.586C244.114 251.479 243.494 253.041 243.494 255.272V260.851C243.494 262.388 243.866 263.652 244.61 264.644C245.354 265.586 246.296 266.057 247.437 266.057C249.023 266.057 250.536 265.041 251.974 263.008V249.173ZM280.9 234.892H283.95V238.388C284.842 236.95 285.809 235.884 286.851 235.19C287.942 234.495 289.008 234.148 290.049 234.148C291.537 234.148 292.826 234.892 293.917 236.38C295.008 237.867 295.553 240.099 295.553 243.074V266.131H292.429V241.884C292.429 239.454 292.107 237.694 291.462 236.603C290.818 235.512 289.999 234.966 289.008 234.966C288.165 234.966 287.297 235.338 286.404 236.082C285.561 236.776 284.743 237.768 283.95 239.057V266.131H280.9V234.892ZM324.025 259.065C324.025 263.974 325.463 266.429 328.339 266.429C331.264 266.429 332.727 263.974 332.727 259.065V253.413H335.851V258.322C335.851 261.198 335.231 263.355 333.992 264.793C332.801 266.181 331.041 266.875 328.711 266.875H327.967C323.256 266.875 320.901 264.024 320.901 258.322V242.479C320.901 239.454 321.446 237.322 322.537 236.082C323.678 234.793 325.487 234.148 327.967 234.148H328.636C331.165 234.148 333 234.793 334.14 236.082C335.281 237.371 335.851 239.504 335.851 242.479V247.537H332.727V242.033C332.727 239.603 332.43 237.768 331.835 236.528C331.239 235.239 330.049 234.595 328.264 234.595C326.529 234.595 325.388 235.239 324.843 236.528C324.297 237.768 324.025 239.603 324.025 242.033V259.065ZM364.326 259.065C364.326 263.974 365.764 266.429 368.64 266.429C371.566 266.429 373.029 263.974 373.029 259.065V254.9H376.152V258.322C376.152 264.024 373.772 266.875 369.012 266.875H368.268C363.558 266.875 361.202 264.024 361.202 258.322V242.479C361.202 239.454 361.748 237.322 362.839 236.082C363.979 234.793 365.789 234.148 368.268 234.148H369.012C371.541 234.148 373.351 234.793 374.442 236.082C375.582 237.371 376.152 239.504 376.152 242.479V250.512H364.326V259.065ZM364.326 250.066H373.029V242.033C373.029 239.603 372.731 237.768 372.136 236.528C371.541 235.239 370.376 234.595 368.64 234.595C366.905 234.595 365.739 235.239 365.144 236.528C364.599 237.768 364.326 239.603 364.326 242.033V250.066Z" fill="white"/>
</svg>
