<svg width="273" height="148" viewBox="0 0 273 148" fill="none" xmlns="http://www.w3.org/2000/svg">
<path d="M12.3916 31.8145C11.2196 31.8145 10.2873 32.0276 9.59478 32.4538C8.95551 32.8799 8.44942 33.4926 8.07651 34.2917C7.70361 35.0907 7.46388 36.0763 7.35734 37.2483C7.25079 38.367 7.19752 39.6455 7.19752 41.0839V80.1592C7.19752 82.8228 7.59706 84.8472 8.39615 86.2322C9.24851 87.6173 10.5537 88.3099 12.3117 88.3099C13.8566 88.3099 15.0552 87.7771 15.9076 86.7117C16.8132 85.593 17.266 83.9682 17.266 81.8373V67.2939H20.7021V81.198C20.7021 83.8616 20.0095 85.8061 18.6244 87.0313C17.2394 88.2033 15.2949 88.7893 12.7911 88.7893H11.5126C9.00878 88.7893 7.06434 88.0701 5.67925 86.6318C4.34744 85.1402 3.68154 82.7962 3.68154 79.5998V40.5245C3.68154 37.0618 4.32081 34.6646 5.59935 33.3328C6.93116 32.0009 8.90224 31.335 11.5126 31.335H12.7112C15.3748 31.335 17.3992 31.921 18.7843 33.093C20.1693 34.2117 20.8619 36.2361 20.8619 39.1661V52.8304H17.3459V39.6455C17.3459 37.195 17.0263 35.2772 16.387 33.8921C15.801 32.507 14.4692 31.8145 12.3916 31.8145ZM65.7905 32.1341V87.9902H62.3544V60.3419H52.8453V87.9902H49.3293V32.1341H52.8453V59.8624H62.3544V32.1341H65.7905ZM98.2496 32.6136V59.8624H105.202V60.3419H98.2496V87.5108H107.199V87.9902H94.7336V32.1341H107.199V32.6136H98.2496ZM103.603 25.0223C104.669 24.5428 105.202 23.797 105.202 22.7848C105.202 22.3586 105.095 21.9591 104.882 21.5862C104.722 21.16 104.536 20.7871 104.323 20.4675L97.2108 27.8191L97.5304 28.1387L103.603 25.0223ZM143.629 32.1341C146.346 32.1341 148.344 32.8267 149.622 34.2117C150.954 35.5436 151.62 37.9142 151.62 41.3236V51.1524C151.62 53.7627 151.087 55.7871 150.022 57.2254C149.009 58.6638 147.598 59.5694 145.786 59.9423V60.1021C147.704 60.3685 149.143 61.2209 150.102 62.6592C151.114 64.0443 151.62 66.1485 151.62 68.972V87.9902H148.104V69.5313C148.104 66.6546 147.784 64.3906 147.145 62.7391C146.559 61.0877 145.254 60.2619 143.229 60.2619H138.035V87.9902H134.599V32.1341H143.629ZM138.035 59.7825H143.229C144.934 59.7825 146.159 59.09 146.905 57.7049C147.704 56.3198 148.104 54.3487 148.104 51.7916V41.883C148.104 38.953 147.811 36.6889 147.225 35.0907C146.639 33.4393 145.254 32.6136 143.07 32.6136H138.035V59.7825ZM189.423 32.1341C192.14 32.1341 194.138 32.8267 195.417 34.2117C196.748 35.5436 197.414 37.9142 197.414 41.3236V51.1524C197.414 53.7627 196.882 55.7871 195.816 57.2254C194.804 58.6638 193.392 59.5694 191.581 59.9423V60.1021C193.499 60.3685 194.937 61.2209 195.896 62.6592C196.908 64.0443 197.414 66.1485 197.414 68.972V87.9902H193.898V69.5313C193.898 66.6546 193.579 64.3906 192.939 62.7391C192.353 61.0877 191.048 60.2619 189.024 60.2619H183.83V87.9902H180.394V32.1341H189.423ZM183.83 59.7825H189.024C190.729 59.7825 191.954 59.09 192.7 57.7049C193.499 56.3198 193.898 54.3487 193.898 51.7916V41.883C193.898 38.953 193.605 36.6889 193.019 35.0907C192.433 33.4393 191.048 32.6136 188.864 32.6136H183.83V59.7825ZM226.188 32.1341H229.624V87.9902H226.188V32.1341ZM261.997 32.6136V59.8624H268.949V60.3419H261.997V87.5108H270.946V87.9902H258.481V32.1341H270.946V32.6136H261.997Z" fill="#E27F9C"/>
<path d="M9.59478 32.4538L9.3464 32.0501L9.33906 32.0546L9.33189 32.0594L9.59478 32.4538ZM8.07651 34.2917L7.64705 34.0912L7.64705 34.0912L8.07651 34.2917ZM7.35734 37.2483L7.82913 37.2932L7.82931 37.2912L7.35734 37.2483ZM8.39615 86.2322L7.98548 86.4692L7.99253 86.4806L8.39615 86.2322ZM15.9076 86.7117L15.5392 86.4135L15.5375 86.4156L15.9076 86.7117ZM17.266 67.2939V66.82H16.7921V67.2939H17.266ZM20.7021 67.2939H21.176V66.82H20.7021V67.2939ZM18.6244 87.0313L18.9306 87.3932L18.9385 87.3863L18.6244 87.0313ZM5.67925 86.6318L5.32574 86.9474L5.33169 86.9541L5.33788 86.9605L5.67925 86.6318ZM5.59935 33.3328L5.26416 32.9976L5.25746 33.0045L5.59935 33.3328ZM18.7843 33.093L18.4781 33.4549L18.4865 33.4617L18.7843 33.093ZM20.8619 52.8304V53.3044H21.3358V52.8304H20.8619ZM17.3459 52.8304H16.872V53.3044H17.3459V52.8304ZM16.387 33.8921L15.9505 34.0768L15.9535 34.0838L15.9567 34.0907L16.387 33.8921ZM12.3916 31.3406C11.1685 31.3406 10.1396 31.562 9.3464 32.0501L9.84316 32.8574C10.435 32.4932 11.2707 32.2884 12.3916 32.2884V31.3406ZM9.33189 32.0594C8.61023 32.5405 8.05115 33.2253 7.64705 34.0912L8.50597 34.4921C8.84769 33.7598 9.30079 33.2193 9.85766 32.8481L9.33189 32.0594ZM7.64705 34.0912C7.24467 34.9535 6.99531 35.9959 6.88536 37.2054L7.82931 37.2912C7.93245 36.1566 8.16254 35.228 8.50597 34.4921L7.64705 34.0912ZM6.88555 37.2033C6.77725 38.3404 6.7236 39.6344 6.7236 41.0839H7.67144C7.67144 39.6566 7.72433 38.3935 7.82912 37.2932L6.88555 37.2033ZM6.7236 41.0839V80.1592H7.67144V41.0839H6.7236ZM6.7236 80.1592C6.7236 82.8569 7.12592 84.9789 7.98564 86.4691L8.80665 85.9954C8.0682 84.7154 7.67144 82.7888 7.67144 80.1592H6.7236ZM7.99253 86.4806C8.93922 88.019 10.4051 88.7838 12.3117 88.7838V87.8359C10.7022 87.8359 9.55779 87.2156 8.79977 85.9839L7.99253 86.4806ZM12.3117 88.7838C13.979 88.7838 15.3227 88.2014 16.2776 87.0078L15.5375 86.4156C14.7877 87.3529 13.7341 87.8359 12.3117 87.8359V88.7838ZM16.2759 87.0099C17.2759 85.7746 17.7399 84.0264 17.7399 81.8373H16.7921C16.7921 83.9099 16.3505 85.4114 15.5392 86.4135L16.2759 87.0099ZM17.7399 81.8373V67.2939H16.7921V81.8373H17.7399ZM17.266 67.7678H20.7021V66.82H17.266V67.7678ZM20.2281 67.2939V81.198H21.176V67.2939H20.2281ZM20.2281 81.198C20.2281 83.7871 19.5556 85.5749 18.3104 86.6764L18.9385 87.3863C20.4635 86.0372 21.176 83.9362 21.176 81.198H20.2281ZM18.3183 86.6695C17.0464 87.7458 15.2253 88.3154 12.7911 88.3154V89.2632C15.3646 89.2632 17.4323 88.6609 18.9306 87.3931L18.3183 86.6695ZM12.7911 88.3154H11.5126V89.2632H12.7911V88.3154ZM11.5126 88.3154C9.10286 88.3154 7.29487 87.6263 6.02063 86.3031L5.33788 86.9605C6.83381 88.514 8.9147 89.2632 11.5126 89.2632V88.3154ZM6.03277 86.3161C4.8134 84.9504 4.15546 82.7457 4.15546 79.5998H3.20762C3.20762 82.8466 3.88149 85.3299 5.32574 86.9474L6.03277 86.3161ZM4.15546 79.5998V40.5245H3.20762V79.5998H4.15546ZM4.15546 40.5245C4.15546 37.0888 4.79607 34.8538 5.94123 33.661L5.25746 33.0045C3.84554 34.4753 3.20762 37.0349 3.20762 40.5245H4.15546ZM5.93446 33.6679C7.14767 32.4546 8.97851 31.809 11.5126 31.809V30.8611C8.82596 30.8611 6.71464 31.5472 5.26423 32.9976L5.93446 33.6679ZM11.5126 31.809H12.7112V30.8611H11.5126V31.809ZM12.7112 31.809C15.3138 31.809 17.2109 32.3825 18.4781 33.4548L19.0904 32.7312C17.5875 31.4596 15.4359 30.8611 12.7112 30.8611V31.809ZM18.4865 33.4617C19.7048 34.4457 20.388 36.2883 20.388 39.1661H21.3358C21.3358 36.1839 20.6339 33.9778 19.082 32.7243L18.4865 33.4617ZM20.388 39.1661V52.8304H21.3358V39.1661H20.388ZM20.8619 52.3565H17.3459V53.3044H20.8619V52.3565ZM17.8198 52.8304V39.6455H16.872V52.8304H17.8198ZM17.8198 39.6455C17.8198 37.1633 17.4975 35.1673 16.8173 33.6935L15.9567 34.0907C16.555 35.387 16.872 37.2267 16.872 39.6455H17.8198ZM16.8235 33.7074C16.1346 32.0792 14.5732 31.3406 12.3916 31.3406V32.2884C14.3652 32.2884 15.4674 32.9348 15.9505 34.0768L16.8235 33.7074ZM65.7905 32.1341H66.2644V31.6602H65.7905V32.1341ZM65.7905 87.9902V88.4642H66.2644V87.9902H65.7905ZM62.3544 87.9902H61.8805V88.4642H62.3544V87.9902ZM62.3544 60.3419H62.8284V59.8679H62.3544V60.3419ZM52.8453 60.3419V59.8679H52.3714V60.3419H52.8453ZM52.8453 87.9902V88.4642H53.3192V87.9902H52.8453ZM49.3293 87.9902H48.8554V88.4642H49.3293V87.9902ZM49.3293 32.1341V31.6602H48.8554V32.1341H49.3293ZM52.8453 32.1341H53.3192V31.6602H52.8453V32.1341ZM52.8453 59.8624H52.3714V60.3363H52.8453V59.8624ZM62.3544 59.8624V60.3363H62.8284V59.8624H62.3544ZM62.3544 32.1341V31.6602H61.8805V32.1341H62.3544ZM65.3166 32.1341V87.9902H66.2644V32.1341H65.3166ZM65.7905 87.5163H62.3544V88.4642H65.7905V87.5163ZM62.8284 87.9902V60.3419H61.8805V87.9902H62.8284ZM62.3544 59.8679H52.8453V60.8158H62.3544V59.8679ZM52.3714 60.3419V87.9902H53.3192V60.3419H52.3714ZM52.8453 87.5163H49.3293V88.4642H52.8453V87.5163ZM49.8032 87.9902V32.1341H48.8554V87.9902H49.8032ZM49.3293 32.608H52.8453V31.6602H49.3293V32.608ZM52.3714 32.1341V59.8624H53.3192V32.1341H52.3714ZM52.8453 60.3363H62.3544V59.3885H52.8453V60.3363ZM62.8284 59.8624V32.1341H61.8805V59.8624H62.8284ZM62.3544 32.608H65.7905V31.6602H62.3544V32.608ZM98.2496 32.6136V32.1397H97.7757V32.6136H98.2496ZM98.2496 59.8624H97.7757V60.3363H98.2496V59.8624ZM105.202 59.8624H105.676V59.3885H105.202V59.8624ZM105.202 60.3419V60.8158H105.676V60.3419H105.202ZM98.2496 60.3419V59.8679H97.7757V60.3419H98.2496ZM98.2496 87.5108H97.7757V87.9847H98.2496V87.5108ZM107.199 87.5108H107.673V87.0369H107.199V87.5108ZM107.199 87.9902V88.4642H107.673V87.9902H107.199ZM94.7336 87.9902H94.2597V88.4642H94.7336V87.9902ZM94.7336 32.1341V31.6602H94.2597V32.1341H94.7336ZM107.199 32.1341H107.673V31.6602H107.199V32.1341ZM107.199 32.6136V33.0875H107.673V32.6136H107.199ZM103.603 25.0223L103.409 24.5901L103.398 24.5951L103.387 24.6006L103.603 25.0223ZM104.882 21.5862L104.438 21.7526L104.452 21.7883L104.471 21.8213L104.882 21.5862ZM104.323 20.4675L104.717 20.2046L104.391 19.7154L103.982 20.138L104.323 20.4675ZM97.2108 27.8191L96.8702 27.4895L96.5461 27.8246L96.8757 28.1542L97.2108 27.8191ZM97.5304 28.1387L97.1953 28.4738L97.4395 28.718L97.7468 28.5603L97.5304 28.1387ZM97.7757 32.6136V59.8624H98.7235V32.6136H97.7757ZM98.2496 60.3363H105.202V59.3885H98.2496V60.3363ZM104.728 59.8624V60.3419H105.676V59.8624H104.728ZM105.202 59.8679H98.2496V60.8158H105.202V59.8679ZM97.7757 60.3419V87.5108H98.7235V60.3419H97.7757ZM98.2496 87.9847H107.199V87.0369H98.2496V87.9847ZM106.725 87.5108V87.9902H107.673V87.5108H106.725ZM107.199 87.5163H94.7336V88.4642H107.199V87.5163ZM95.2076 87.9902V32.1341H94.2597V87.9902H95.2076ZM94.7336 32.608H107.199V31.6602H94.7336V32.608ZM106.725 32.1341V32.6136H107.673V32.1341H106.725ZM107.199 32.1397H98.2496V33.0875H107.199V32.1397ZM103.798 25.4544C104.387 25.1896 104.861 24.8362 105.188 24.3788C105.518 23.9171 105.676 23.3789 105.676 22.7848H104.728C104.728 23.2029 104.619 23.5437 104.416 23.8278C104.211 24.1162 103.886 24.3755 103.409 24.5901L103.798 25.4544ZM105.676 22.7848C105.676 22.2755 105.547 21.795 105.294 21.3511L104.471 21.8213C104.643 22.1232 104.728 22.4418 104.728 22.7848H105.676ZM105.326 21.4198C105.156 20.9657 104.953 20.5593 104.717 20.2046L103.928 20.7304C104.118 21.0149 104.289 21.3543 104.438 21.7526L105.326 21.4198ZM103.982 20.138L96.8702 27.4895L97.5514 28.1486L104.663 20.797L103.982 20.138ZM96.8757 28.1542L97.1953 28.4738L97.8656 27.8036L97.5459 27.4839L96.8757 28.1542ZM97.7468 28.5603L103.82 25.4439L103.387 24.6006L97.3141 27.717L97.7468 28.5603ZM149.622 34.2117L149.274 34.5332L149.28 34.5402L149.287 34.5469L149.622 34.2117ZM150.022 57.2254L149.641 56.9432L149.634 56.9527L150.022 57.2254ZM145.786 59.9423L145.691 59.4781L145.313 59.556V59.9423H145.786ZM145.786 60.1021H145.313V60.5148L145.721 60.5715L145.786 60.1021ZM150.102 62.6592L149.707 62.9221L149.713 62.9306L149.719 62.9388L150.102 62.6592ZM151.62 87.9902V88.4642H152.094V87.9902H151.62ZM148.104 87.9902H147.63V88.4642H148.104V87.9902ZM147.145 62.7391L146.698 62.8977L146.703 62.9102L147.145 62.7391ZM138.035 60.2619V59.788H137.561V60.2619H138.035ZM138.035 87.9902V88.4642H138.509V87.9902H138.035ZM134.599 87.9902H134.125V88.4642H134.599V87.9902ZM134.599 32.1341V31.6602H134.125V32.1341H134.599ZM138.035 59.7825H137.561V60.2564H138.035V59.7825ZM146.905 57.7049L146.495 57.4679L146.488 57.4802L146.905 57.7049ZM147.225 35.0907L146.778 35.2492L146.78 35.2539L147.225 35.0907ZM138.035 32.6136V32.1397H137.561V32.6136H138.035ZM143.629 32.608C146.273 32.608 148.119 33.2817 149.274 34.5332L149.97 33.8903C148.569 32.3716 146.419 31.6602 143.629 31.6602V32.608ZM149.287 34.5469C150.481 35.7407 151.146 37.9471 151.146 41.3236H152.094C152.094 37.8812 151.427 35.3464 149.957 33.8766L149.287 34.5469ZM151.146 41.3236V51.1524H152.094V41.3236H151.146ZM151.146 51.1524C151.146 53.7058 150.624 55.6164 149.641 56.9433L150.402 57.5075C151.55 55.9578 152.094 53.8196 152.094 51.1524H151.146ZM149.634 56.9527C148.695 58.2869 147.391 59.1282 145.691 59.4781L145.882 60.4065C147.805 60.0106 149.324 59.0406 150.409 57.4982L149.634 56.9527ZM145.313 59.9423V60.1021H146.26V59.9423H145.313ZM145.721 60.5715C147.523 60.8218 148.833 61.6107 149.707 62.9221L150.496 62.3963C149.452 60.831 147.886 59.9152 145.852 59.6327L145.721 60.5715ZM149.719 62.9388C150.644 64.2053 151.146 66.1898 151.146 68.972H152.094C152.094 66.1073 151.583 63.8833 150.484 62.3796L149.719 62.9388ZM151.146 68.972V87.9902H152.094V68.972H151.146ZM151.62 87.5163H148.104V88.4642H151.62V87.5163ZM148.578 87.9902V69.5313H147.63V87.9902H148.578ZM148.578 69.5313C148.578 66.6281 148.256 64.2975 147.587 62.568L146.703 62.9102C147.312 64.4836 147.63 66.6812 147.63 69.5313H148.578ZM147.592 62.5806C147.268 61.669 146.734 60.9579 145.98 60.4807C145.231 60.0071 144.304 59.788 143.229 59.788V60.7359C144.179 60.7359 144.917 60.9296 145.473 61.2817C146.024 61.6303 146.436 62.1578 146.698 62.8976L147.592 62.5806ZM143.229 59.788H138.035V60.7359H143.229V59.788ZM137.561 60.2619V87.9902H138.509V60.2619H137.561ZM138.035 87.5163H134.599V88.4642H138.035V87.5163ZM135.073 87.9902V32.1341H134.125V87.9902H135.073ZM134.599 32.608H143.629V31.6602H134.599V32.608ZM138.035 60.2564H143.229V59.3086H138.035V60.2564ZM143.229 60.2564C144.146 60.2564 144.963 60.0698 145.66 59.6757C146.36 59.2803 146.912 58.6913 147.322 57.9296L146.488 57.4802C146.152 58.1035 145.72 58.5533 145.194 58.8505C144.666 59.1489 144.017 59.3086 143.229 59.3086V60.2564ZM147.316 57.9417C148.174 56.4537 148.578 54.3869 148.578 51.7916H147.63C147.63 54.3105 147.234 56.1859 146.495 57.468L147.316 57.9417ZM148.578 51.7916V41.883H147.63V51.7916H148.578ZM148.578 41.883C148.578 38.9315 148.284 36.6026 147.67 34.9276L146.78 35.2539C147.338 36.7752 147.63 38.9745 147.63 41.883H148.578ZM147.671 34.9323C147.345 34.0121 146.785 33.3003 145.989 32.8258C145.202 32.3563 144.218 32.1397 143.07 32.1397V33.0875C144.105 33.0875 144.906 33.2837 145.504 33.6399C146.093 33.9912 146.519 34.5179 146.778 35.2492L147.671 34.9323ZM143.07 32.1397H138.035V33.0875H143.07V32.1397ZM137.561 32.6136V59.7825H138.509V32.6136H137.561ZM195.417 34.2117L195.068 34.5332L195.075 34.5402L195.081 34.5469L195.417 34.2117ZM195.816 57.2254L195.435 56.9432L195.429 56.9527L195.816 57.2254ZM191.581 59.9423L191.485 59.4781L191.107 59.556V59.9423H191.581ZM191.581 60.1021H191.107V60.5148L191.516 60.5715L191.581 60.1021ZM195.896 62.6592L195.502 62.9221L195.507 62.9306L195.513 62.9388L195.896 62.6592ZM197.414 87.9902V88.4642H197.888V87.9902H197.414ZM193.898 87.9902H193.424V88.4642H193.898V87.9902ZM192.939 62.7391L192.493 62.8977L192.497 62.9102L192.939 62.7391ZM183.83 60.2619V59.788H183.356V60.2619H183.83ZM183.83 87.9902V88.4642H184.304V87.9902H183.83ZM180.394 87.9902H179.92V88.4642H180.394V87.9902ZM180.394 32.1341V31.6602H179.92V32.1341H180.394ZM183.83 59.7825H183.356V60.2564H183.83V59.7825ZM192.7 57.7049L192.289 57.4679L192.282 57.4802L192.7 57.7049ZM193.019 35.0907L192.573 35.2492L192.574 35.2539L193.019 35.0907ZM183.83 32.6136V32.1397H183.356V32.6136H183.83ZM189.423 32.608C192.067 32.608 193.913 33.2817 195.068 34.5332L195.765 33.8903C194.363 32.3716 192.213 31.6602 189.423 31.6602V32.608ZM195.081 34.5469C196.275 35.7407 196.94 37.9471 196.94 41.3236H197.888C197.888 37.8812 197.222 35.3464 195.752 33.8766L195.081 34.5469ZM196.94 41.3236V51.1524H197.888V41.3236H196.94ZM196.94 51.1524C196.94 53.7058 196.418 55.6164 195.435 56.9433L196.197 57.5075C197.345 55.9578 197.888 53.8196 197.888 51.1524H196.94ZM195.429 56.9527C194.49 58.2869 193.185 59.1282 191.485 59.4781L191.677 60.4065C193.599 60.0106 195.118 59.0406 196.204 57.4982L195.429 56.9527ZM191.107 59.9423V60.1021H192.055V59.9423H191.107ZM191.516 60.5715C193.317 60.8218 194.627 61.6107 195.502 62.9221L196.29 62.3963C195.247 60.831 193.68 59.9152 191.646 59.6327L191.516 60.5715ZM195.513 62.9388C196.439 64.2053 196.94 66.1898 196.94 68.972H197.888C197.888 66.1073 197.378 63.8833 196.279 62.3796L195.513 62.9388ZM196.94 68.972V87.9902H197.888V68.972H196.94ZM197.414 87.5163H193.898V88.4642H197.414V87.5163ZM194.372 87.9902V69.5313H193.424V87.9902H194.372ZM194.372 69.5313C194.372 66.6281 194.051 64.2975 193.381 62.568L192.497 62.9102C193.107 64.4836 193.424 66.6812 193.424 69.5313H194.372ZM193.386 62.5806C193.063 61.669 192.529 60.9579 191.774 60.4807C191.026 60.0071 190.098 59.788 189.024 59.788V60.7359C189.974 60.7359 190.711 60.9296 191.268 61.2817C191.819 61.6303 192.23 62.1578 192.493 62.8976L193.386 62.5806ZM189.024 59.788H183.83V60.7359H189.024V59.788ZM183.356 60.2619V87.9902H184.304V60.2619H183.356ZM183.83 87.5163H180.394V88.4642H183.83V87.5163ZM180.868 87.9902V32.1341H179.92V87.9902H180.868ZM180.394 32.608H189.423V31.6602H180.394V32.608ZM183.83 60.2564H189.024V59.3086H183.83V60.2564ZM189.024 60.2564C189.941 60.2564 190.757 60.0698 191.455 59.6757C192.154 59.2803 192.707 58.6913 193.117 57.9296L192.282 57.4802C191.947 58.1035 191.514 58.5533 190.988 58.8505C190.46 59.1489 189.812 59.3086 189.024 59.3086V60.2564ZM193.11 57.9417C193.969 56.4537 194.372 54.3869 194.372 51.7916H193.424C193.424 54.3105 193.029 56.1859 192.289 57.468L193.11 57.9417ZM194.372 51.7916V41.883H193.424V51.7916H194.372ZM194.372 41.883C194.372 38.9315 194.078 36.6026 193.464 34.9276L192.574 35.2539C193.132 36.7752 193.424 38.9745 193.424 41.883H194.372ZM193.466 34.9323C193.139 34.0121 192.58 33.3003 191.784 32.8258C190.996 32.3563 190.012 32.1397 188.864 32.1397V33.0875C189.9 33.0875 190.701 33.2837 191.298 33.6399C191.888 33.9912 192.313 34.5179 192.573 35.2492L193.466 34.9323ZM188.864 32.1397H183.83V33.0875H188.864V32.1397ZM183.356 32.6136V59.7825H184.304V32.6136H183.356ZM226.188 32.1341V31.6602H225.714V32.1341H226.188ZM229.624 32.1341H230.098V31.6602H229.624V32.1341ZM229.624 87.9902V88.4642H230.098V87.9902H229.624ZM226.188 87.9902H225.714V88.4642H226.188V87.9902ZM226.188 32.608H229.624V31.6602H226.188V32.608ZM229.15 32.1341V87.9902H230.098V32.1341H229.15ZM229.624 87.5163H226.188V88.4642H229.624V87.5163ZM226.662 87.9902V32.1341H225.714V87.9902H226.662ZM261.997 32.6136V32.1397H261.523V32.6136H261.997ZM261.997 59.8624H261.523V60.3363H261.997V59.8624ZM268.949 59.8624H269.423V59.3885H268.949V59.8624ZM268.949 60.3419V60.8158H269.423V60.3419H268.949ZM261.997 60.3419V59.8679H261.523V60.3419H261.997ZM261.997 87.5108H261.523V87.9847H261.997V87.5108ZM270.946 87.5108H271.42V87.0369H270.946V87.5108ZM270.946 87.9902V88.4642H271.42V87.9902H270.946ZM258.481 87.9902H258.007V88.4642H258.481V87.9902ZM258.481 32.1341V31.6602H258.007V32.1341H258.481ZM270.946 32.1341H271.42V31.6602H270.946V32.1341ZM270.946 32.6136V33.0875H271.42V32.6136H270.946ZM261.523 32.6136V59.8624H262.471V32.6136H261.523ZM261.997 60.3363H268.949V59.3885H261.997V60.3363ZM268.475 59.8624V60.3419H269.423V59.8624H268.475ZM268.949 59.8679H261.997V60.8158H268.949V59.8679ZM261.523 60.3419V87.5108H262.471V60.3419H261.523ZM261.997 87.9847H270.946V87.0369H261.997V87.9847ZM270.473 87.5108V87.9902H271.42V87.5108H270.473ZM270.946 87.5163H258.481V88.4642H270.946V87.5163ZM258.955 87.9902V32.1341H258.007V87.9902H258.955ZM258.481 32.608H270.946V31.6602H258.481V32.608ZM270.473 32.1341V32.6136H271.42V32.1341H270.473ZM270.946 32.1397H261.997V33.0875H270.946V32.1397Z" fill="#E27F9C"/>
<path d="M83.2894 106.07C83.2894 104.895 83.5244 103.99 83.9944 103.356C84.4879 102.721 85.0989 102.404 85.8274 102.404C86.1799 102.404 86.5559 102.498 86.9554 102.686C87.3549 102.874 87.7426 103.168 88.1186 103.567L87.9776 103.708C87.3666 103.097 86.8261 102.792 86.3561 102.792C85.8861 102.792 85.5101 103.062 85.2281 103.602C84.9696 104.119 84.8404 104.789 84.8404 105.612V112.591H87.5194V112.803H84.8404V127.396H83.2894V112.803H82.0204V112.591H83.2894V106.07ZM99.5911 112.591V116.151H99.6969C99.9554 115.023 100.32 114.154 100.79 113.543C101.283 112.908 102.047 112.591 103.081 112.591V113.931C102.493 113.931 101.976 114.036 101.53 114.248C101.107 114.459 100.743 114.753 100.437 115.129C100.155 115.482 99.9436 115.905 99.8026 116.398C99.6616 116.868 99.5911 117.373 99.5911 117.914V127.396H98.1459V112.591H99.5911ZM114.487 122.461C114.487 121.333 114.933 120.511 115.826 119.994C116.719 119.453 118.106 119.171 119.986 119.148V115.975C119.986 114.706 119.833 113.801 119.528 113.261C119.222 112.72 118.705 112.45 117.977 112.45C117.248 112.45 116.731 112.732 116.426 113.296C116.12 113.837 115.967 114.73 115.967 115.975V118.584H114.487V116.398C114.487 114.918 114.734 113.86 115.227 113.226C115.744 112.568 116.59 112.239 117.765 112.239H118.118C119.316 112.239 120.162 112.544 120.656 113.155C121.173 113.766 121.431 114.777 121.431 116.187V127.396H119.986V126.233C119.163 127.243 118.235 127.749 117.201 127.749C116.449 127.749 115.803 127.478 115.262 126.938C114.745 126.397 114.487 125.704 114.487 124.858V122.461ZM119.986 119.359C118.505 119.383 117.46 119.606 116.849 120.029C116.261 120.452 115.967 121.192 115.967 122.25V124.893C115.967 125.622 116.144 126.221 116.496 126.691C116.849 127.138 117.295 127.361 117.836 127.361C118.588 127.361 119.304 126.879 119.986 125.916V119.359ZM133.695 112.591H135.14V114.248C135.563 113.566 136.021 113.061 136.515 112.732C137.032 112.403 137.537 112.239 138.031 112.239C138.736 112.239 139.347 112.591 139.864 113.296C140.381 114.001 140.639 115.059 140.639 116.469V127.396H139.159V115.905C139.159 114.753 139.006 113.919 138.7 113.402C138.395 112.885 138.007 112.626 137.537 112.626C137.137 112.626 136.726 112.803 136.303 113.155C135.904 113.484 135.516 113.954 135.14 114.565V127.396H133.695V112.591ZM154.132 124.047C154.132 126.374 154.814 127.537 156.177 127.537C157.563 127.537 158.257 126.374 158.257 124.047V121.368H159.737V123.695C159.737 125.058 159.443 126.08 158.856 126.762C158.292 127.42 157.458 127.749 156.353 127.749H156.001C153.768 127.749 152.652 126.397 152.652 123.695V116.187C152.652 114.753 152.91 113.743 153.427 113.155C153.968 112.544 154.826 112.239 156.001 112.239H156.318C157.516 112.239 158.386 112.544 158.926 113.155C159.467 113.766 159.737 114.777 159.737 116.187V118.584H158.257V115.975C158.257 114.824 158.116 113.954 157.834 113.367C157.552 112.756 156.988 112.45 156.142 112.45C155.319 112.45 154.779 112.756 154.52 113.367C154.262 113.954 154.132 114.824 154.132 115.975V124.047ZM173.232 124.047C173.232 126.374 173.914 127.537 175.277 127.537C176.663 127.537 177.356 126.374 177.356 124.047V122.073H178.837V123.695C178.837 126.397 177.709 127.749 175.453 127.749H175.1C172.868 127.749 171.752 126.397 171.752 123.695V116.187C171.752 114.753 172.01 113.743 172.527 113.155C173.068 112.544 173.925 112.239 175.1 112.239H175.453C176.651 112.239 177.509 112.544 178.026 113.155C178.567 113.766 178.837 114.777 178.837 116.187V119.994H173.232V124.047ZM173.232 119.782H177.356V115.975C177.356 114.824 177.215 113.954 176.933 113.367C176.651 112.756 176.099 112.45 175.277 112.45C174.454 112.45 173.902 112.756 173.62 113.367C173.361 113.954 173.232 114.824 173.232 115.975V119.782Z" fill="#E27F9C"/>
</svg>
